<svg xmlns="http://www.w3.org/2000/svg" width="1080" height="63.509" viewBox="0 0 1080 63.509">
  <g id="Group_44" data-name="Group 44" transform="translate(4600.842 -1795.731)">
    <path id="Path_210" data-name="Path 210" d="M-3971.7,1796.882v-1.151h-51.6v1.348a34.869,34.869,0,0,1,24.436,25.086h2.109a34.882,34.882,0,0,1,25.054-25.283" fill="#cdc9c5"/>
    <path id="Path_211" data-name="Path 211" d="M-3971.7,1858.089a34.882,34.882,0,0,1-25.054-25.283h-2.109a34.868,34.868,0,0,1-24.436,25.086v1.348h51.6Z" fill="#cdc9c5"/>
    <path id="Path_212" data-name="Path 212" d="M-4091.615,1801.688h-1.151v51.6h1.348a34.869,34.869,0,0,1,25.086-24.436v-2.11a34.88,34.88,0,0,1-25.283-25.054" fill="#cdc9c5"/>
    <path id="Path_213" data-name="Path 213" d="M-4030.407,1801.688a34.88,34.88,0,0,1-25.283,25.054v2.11a34.869,34.869,0,0,1,25.086,24.436h1.348v-51.6Z" fill="#cdc9c5"/>
    <path id="Path_214" data-name="Path 214" d="M-4150.319,1796.882v-1.151h51.6v1.348a34.868,34.868,0,0,0-24.437,25.086h-2.109a34.881,34.881,0,0,0-25.054-25.283" fill="#cdc9c5"/>
    <path id="Path_215" data-name="Path 215" d="M-4150.319,1858.089a34.881,34.881,0,0,0,25.054-25.283h2.109a34.868,34.868,0,0,0,24.437,25.086v1.348h-51.6Z" fill="#cdc9c5"/>
    <path id="Path_216" data-name="Path 216" d="M-4157.426,1801.688h1.15v51.6h-1.347a34.87,34.87,0,0,0-25.086-24.436v-2.11a34.881,34.881,0,0,0,25.283-25.054" fill="#cdc9c5"/>
    <path id="Path_217" data-name="Path 217" d="M-4218.634,1801.688a34.879,34.879,0,0,0,25.283,25.054v2.11a34.868,34.868,0,0,0-25.086,24.436h-1.348v-51.6Z" fill="#cdc9c5"/>
    <path id="Path_218" data-name="Path 218" d="M-4277.339,1796.882v-1.151h51.6v1.348a34.865,34.865,0,0,0-24.436,25.086h-2.11a34.881,34.881,0,0,0-25.054-25.283" fill="#cdc9c5"/>
    <path id="Path_219" data-name="Path 219" d="M-4277.339,1858.089a34.881,34.881,0,0,0,25.054-25.283h2.11a34.865,34.865,0,0,0,24.436,25.086v1.348h-51.6Z" fill="#cdc9c5"/>
    <path id="Path_220" data-name="Path 220" d="M-4284.446,1801.688h1.15v51.6h-1.347a34.87,34.87,0,0,0-25.086-24.436v-2.11a34.881,34.881,0,0,0,25.283-25.054" fill="#cdc9c5"/>
    <path id="Path_221" data-name="Path 221" d="M-4345.654,1801.688a34.879,34.879,0,0,0,25.283,25.054v2.11a34.868,34.868,0,0,0-25.086,24.436h-1.348v-51.6Z" fill="#cdc9c5"/>
    <path id="Path_222" data-name="Path 222" d="M-4352.759,1796.882v-1.151h-51.6v1.348a34.869,34.869,0,0,1,24.436,25.086h2.11a34.878,34.878,0,0,1,25.054-25.283" fill="#cdc9c5"/>
    <path id="Path_223" data-name="Path 223" d="M-4352.759,1858.089a34.878,34.878,0,0,1-25.054-25.283h-2.11a34.869,34.869,0,0,1-24.436,25.086v1.348h51.6Z" fill="#cdc9c5"/>
    <path id="Path_224" data-name="Path 224" d="M-4472.672,1801.688h-1.151v51.6h1.348a34.869,34.869,0,0,1,25.086-24.436v-2.11a34.879,34.879,0,0,1-25.283-25.054" fill="#cdc9c5"/>
    <path id="Path_225" data-name="Path 225" d="M-4411.464,1801.688a34.88,34.88,0,0,1-25.283,25.054v2.11a34.87,34.87,0,0,1,25.086,24.436h1.348v-51.6Z" fill="#cdc9c5"/>
    <path id="Path_226" data-name="Path 226" d="M-4531.376,1796.882v-1.151h51.6v1.348a34.868,34.868,0,0,0-24.436,25.086h-2.109a34.882,34.882,0,0,0-25.054-25.283" fill="#cdc9c5"/>
    <path id="Path_227" data-name="Path 227" d="M-4531.376,1858.089a34.882,34.882,0,0,0,25.054-25.283h2.109a34.868,34.868,0,0,0,24.436,25.086v1.348h-51.6Z" fill="#cdc9c5"/>
    <path id="Path_228" data-name="Path 228" d="M-4538.484,1801.688h1.151v51.6h-1.348a34.868,34.868,0,0,0-25.086-24.436v-2.11a34.879,34.879,0,0,0,25.283-25.054" fill="#cdc9c5"/>
    <path id="Path_229" data-name="Path 229" d="M-4599.692,1801.688a34.879,34.879,0,0,0,25.283,25.054v2.11a34.871,34.871,0,0,0-25.086,24.436h-1.347v-51.6Z" fill="#cdc9c5"/>
    <path id="Path_230" data-name="Path 230" d="M-3583.2,1801.688h-1.151v51.6H-3583a34.866,34.866,0,0,1,25.086-24.436v-2.11a34.878,34.878,0,0,1-25.283-25.054" fill="#cdc9c5"/>
    <path id="Path_231" data-name="Path 231" d="M-3521.993,1801.688a34.88,34.88,0,0,1-25.283,25.054v2.11a34.869,34.869,0,0,1,25.086,24.436h1.348v-51.6Z" fill="#cdc9c5"/>
    <path id="Path_232" data-name="Path 232" d="M-3641.905,1796.882v-1.151h51.6v1.348a34.865,34.865,0,0,0-24.436,25.086h-2.11a34.882,34.882,0,0,0-25.054-25.283" fill="#cdc9c5"/>
    <path id="Path_233" data-name="Path 233" d="M-3641.905,1858.089a34.882,34.882,0,0,0,25.054-25.283h2.11a34.865,34.865,0,0,0,24.436,25.086v1.348h-51.6Z" fill="#cdc9c5"/>
    <path id="Path_234" data-name="Path 234" d="M-3649.012,1801.688h1.15v51.6h-1.348a34.867,34.867,0,0,0-25.085-24.436v-2.11a34.88,34.88,0,0,0,25.283-25.054" fill="#cdc9c5"/>
    <path id="Path_235" data-name="Path 235" d="M-3710.22,1801.688a34.88,34.88,0,0,0,25.283,25.054v2.11a34.868,34.868,0,0,0-25.086,24.436h-1.348v-51.6Z" fill="#cdc9c5"/>
    <path id="Path_236" data-name="Path 236" d="M-3768.925,1796.882v-1.151h51.6v1.348a34.868,34.868,0,0,0-24.436,25.086h-2.11a34.878,34.878,0,0,0-25.054-25.283" fill="#cdc9c5"/>
    <path id="Path_237" data-name="Path 237" d="M-3768.925,1858.089a34.878,34.878,0,0,0,25.054-25.283h2.11a34.868,34.868,0,0,0,24.436,25.086v1.348h-51.6Z" fill="#cdc9c5"/>
    <path id="Path_238" data-name="Path 238" d="M-3776.032,1801.688h1.15v51.6h-1.348a34.867,34.867,0,0,0-25.086-24.436v-2.11a34.881,34.881,0,0,0,25.284-25.054" fill="#cdc9c5"/>
    <path id="Path_239" data-name="Path 239" d="M-3837.24,1801.688a34.88,34.88,0,0,0,25.283,25.054v2.11a34.869,34.869,0,0,0-25.086,24.436h-1.347v-51.6Z" fill="#cdc9c5"/>
    <path id="Path_240" data-name="Path 240" d="M-3844.345,1796.882v-1.151h-51.6v1.348a34.868,34.868,0,0,1,24.436,25.086h2.11a34.878,34.878,0,0,1,25.054-25.283" fill="#cdc9c5"/>
    <path id="Path_241" data-name="Path 241" d="M-3844.345,1858.089a34.878,34.878,0,0,1-25.054-25.283h-2.11a34.868,34.868,0,0,1-24.436,25.086v1.348h51.6Z" fill="#cdc9c5"/>
    <path id="Path_242" data-name="Path 242" d="M-3964.258,1801.688h-1.15v51.6h1.347a34.87,34.87,0,0,1,25.086-24.436v-2.11a34.88,34.88,0,0,1-25.283-25.054" fill="#cdc9c5"/>
    <path id="Path_243" data-name="Path 243" d="M-3903.05,1801.688a34.88,34.88,0,0,1-25.283,25.054v2.11a34.87,34.87,0,0,1,25.086,24.436h1.347v-51.6Z" fill="#cdc9c5"/>
  </g>
</svg>
