<svg xmlns="http://www.w3.org/2000/svg" width="273.775" height="141.732" viewBox="0 0 273.775 141.732">
  <g id="Group_45" data-name="Group 45" transform="translate(4197.73 -73.342)">
    <path id="Path_244" data-name="Path 244" d="M-3979.574,73.347h-1.737c-59.523-.443-106.893,27.411-144,58.49-8.8-8.546-21.89-23.3-29.61-38.558h-29.291c5.723,10.813,18.848,31.375,41.481,54.156-18.322,16.728-41.97,42.9-55,63.394h44.393c.013-.025.02-.041.035-.066,9.847-18.79,19.621-32.741,31.178-45,31.541,24.459,75.137,46.393,144.126,49.307V151.9h-24.077v37.784c-42.192-3.469-75.058-19.317-104.023-41.284,32.112-31.995,79.722-63.736,124.677-62.449h0c23.162.419,35.1,11.2,35.458,22.249h0c.8,9.706-5.335,23.511-27.522,23.511h-.831c-12.434,0-22.594-3.643-22.594-14.465v-1.279c0-2.827,2.686-10.25,12.347-10.25h1.61c5.153,0,7.775,1.3,7.775,3.838v.345c0,1.28.027,2.633-3.076,3.186q-4.224.746-5.684,2.814a4.294,4.294,0,0,0-.415,3.69c1.4,2.962,4.654,3.9,9.026,3.9,5.1,0,20.3-1.514,20.3-13.283v-.539c0-13.607-19.828-16.229-28.159-16.229h-1.059c-30.807,0-34.166,18.439-34.166,23.033v1.277c0,17.091,22.177,26.592,43.384,26.284h3.784c32.346.179,47.219-15.809,47.219-31.615l.067-1.919C-3924.224,87.959-3950.046,73.347-3979.574,73.347Z" fill="#00192f"/>
    <rect id="Rectangle_21" data-name="Rectangle 21" width="23.902" height="63.172" transform="translate(-3960.892 151.902)" fill="#00192f"/>
  </g>
</svg>
