<svg xmlns="http://www.w3.org/2000/svg" width="346.83" height="161.376" viewBox="0 0 346.83 161.376">
    <g id="Group_208" data-name="Group 208" transform="translate(4332.72 -341.608)">
        <path id="Path_967" data-name="Path 967" d="M-4137.666,475.4c-3.643,4.794-6.519,6.711-10.93,6.711-5.177,0-7.478-2.876-7.478-11.218V439.16h-14.094v33.557c0,13.423,4.986,21.476,16.491,21.476,7.382,0,12.56-3.547,17.162-9.012h.383l1.055,7.67h11.505V439.16h-14.094Z" fill="#0069b8"/>
        <rect id="Rectangle_51" data-name="Rectangle 51" width="13.998" height="53.691" transform="translate(-4110.58 439.16)" fill="#0069b8"/>
        <path id="Path_968" data-name="Path 968" d="M-4103.484,415.191c-4.89,0-8.437,3.068-8.437,7.67,0,4.41,3.547,7.67,8.437,7.67,4.794,0,8.341-3.26,8.341-7.67C-4095.143,418.259-4098.69,415.191-4103.484,415.191Z" fill="#0069b8"/>
        <path id="Path_969" data-name="Path 969" d="M-4059.314,482.688c-7.766,0-13.327-6.519-13.327-16.586,0-10.163,5.561-16.779,13.71-16.779,3.068,0,5.561,1.246,8.246,3.548l6.711-9.109a23.47,23.47,0,0,0-15.628-5.944c-14.573,0-27.421,10.354-27.421,28.284,0,17.737,11.314,28.091,26.175,28.091a26.638,26.638,0,0,0,17.545-6.519l-5.561-9.3C-4051.836,480.867-4055.479,482.688-4059.314,482.688Z" fill="#0069b8"/>
        <path id="Path_970" data-name="Path 970" d="M-4006.217,461.116l18.6-21.956h-15.34l-18.6,23.2h-.383V416.341h-13.71v76.51h13.71V479.428l7.766-8.82,13.039,22.243h15.245Z" fill="#0069b8"/>
        <path id="Path_971" data-name="Path 971" d="M-4187.744,419.6c0-43-32.518-77.989-72.488-77.989s-72.488,34.985-72.488,77.989,32.518,77.988,72.488,77.988a68.118,68.118,0,0,0,35.291-9.9l9.441,15.3h34.742L-4203.6,468.19A81.34,81.34,0,0,0-4187.744,419.6Zm-72.488-49.691c24.367,0,44.19,22.291,44.19,49.691s-19.823,49.691-44.19,49.691-44.19-22.292-44.19-49.691S-4284.6,369.906-4260.232,369.906Z" fill="#0069b8"/>
    </g>
</svg>
